<?xml version="1.0" encoding="UTF-8" standalone="no"?>
<!-- Created with Inkscape (http://www.inkscape.org/) -->

<svg
   xmlns:dc="http://purl.org/dc/elements/1.1/"
   xmlns:cc="http://creativecommons.org/ns#"
   xmlns:rdf="http://www.w3.org/1999/02/22-rdf-syntax-ns#"
   xmlns:svg="http://www.w3.org/2000/svg"
   xmlns="http://www.w3.org/2000/svg"
   xmlns:sodipodi="http://sodipodi.sourceforge.net/DTD/sodipodi-0.dtd"
   xmlns:inkscape="http://www.inkscape.org/namespaces/inkscape"
   width="19.360668mm"
   height="15.6138mm"
   viewBox="0 0 68.600793 55.324488"
   id="svg7808"
   version="1.1"
   inkscape:version="0.91 r13725"
   sodipodi:docname="logo.svg"
   inkscape:export-filename="/home/barais/git/oneshotsoftware/img/logo.svg.png"
   inkscape:export-xdpi="90"
   inkscape:export-ydpi="90">
  <defs
     id="defs7810" />
  <sodipodi:namedview
     id="base"
     pagecolor="#ffffff"
     bordercolor="#666666"
     borderopacity="1.0"
     inkscape:pageopacity="0.0"
     inkscape:pageshadow="2"
     inkscape:zoom="2.8"
     inkscape:cx="99.085888"
     inkscape:cy="18.436627"
     inkscape:document-units="px"
     inkscape:current-layer="layer1"
     showgrid="false"
     fit-margin-top="0"
     fit-margin-left="0"
     fit-margin-right="0"
     fit-margin-bottom="0"
     inkscape:window-width="1887"
     inkscape:window-height="1056"
     inkscape:window-x="33"
     inkscape:window-y="24"
     inkscape:window-maximized="1" />
  <metadata
     id="metadata7813">
    <rdf:RDF>
      <cc:Work
         rdf:about="">
        <dc:format>image/svg+xml</dc:format>
        <dc:type
           rdf:resource="http://purl.org/dc/dcmitype/StillImage" />
        <dc:title></dc:title>
      </cc:Work>
    </rdf:RDF>
  </metadata>
  <g
     inkscape:label="Calque 1"
     inkscape:groupmode="layer"
     id="layer1"
     transform="translate(-545.69961,-390.41425)">
    <g
       id="g5515"
       transform="translate(128.6996,-112.55204)"
       inkscape:export-xdpi="90"
       inkscape:export-ydpi="90">
      <g
         transform="matrix(0.11510199,0,0,0.14222235,414.81307,497.41961)"
         id="g4930">
        <rect
           id="rect4932"
           height="63"
           width="85"
           y="282"
           x="458"
           style="fill:#ffffff" />
        <path
           id="path4934"
           d="m 534.4,334.536 -21.949,-21.948 21.134,-21.135 c 0.519,-0.518 0.519,-1.357 0,-1.877 -0.519,-0.52 -1.358,-0.52 -1.877,0 l -31.256,31.256 -31.255,-31.256 c -0.521,-0.52 -1.359,-0.52 -1.879,0 -0.52,0.52 -0.52,1.359 0,1.877 l 21.135,21.135 -21.949,21.948 c -0.518,0.519 -0.518,1.358 0,1.878 0.26,0.26 0.6,0.389 0.939,0.389 0.339,0 0.68,-0.129 0.938,-0.389 l 21.947,-21.948 10.122,10.121 10.122,-10.121 21.946,21.948 c 0.261,0.26 0.601,0.389 0.939,0.389 0.338,0 0.68,-0.129 0.939,-0.389 0.523,-0.518 0.523,-1.359 0.004,-1.878 z"
           inkscape:connector-curvature="0"
           style="fill:#efefef" />
      </g>
      <g
         transform="matrix(0.11510199,0,0,0.14222235,414.81307,497.41961)"
         id="g4936">
        <rect
           id="rect4938"
           height="63"
           width="85"
           y="104"
           x="71"
           style="fill:#ffffff" />
        <path
           id="path4940"
           d="m 147.4,156.536 -21.949,-21.948 21.134,-21.134 c 0.519,-0.518 0.519,-1.359 0,-1.878 -0.519,-0.519 -1.358,-0.519 -1.877,0 l -31.256,31.256 -31.255,-31.256 c -0.519,-0.519 -1.359,-0.519 -1.878,0 -0.519,0.519 -0.519,1.36 0,1.878 l 21.134,21.134 -21.948,21.948 c -0.519,0.519 -0.519,1.359 0,1.878 0.259,0.26 0.599,0.389 0.938,0.389 0.34,0 0.68,-0.129 0.939,-0.389 l 21.948,-21.948 10.122,10.121 10.122,-10.121 21.948,21.948 c 0.26,0.26 0.6,0.389 0.939,0.389 0.339,0 0.68,-0.129 0.939,-0.389 0.519,-0.518 0.519,-1.359 0,-1.878 z"
           inkscape:connector-curvature="0"
           style="fill:#efefef" />
      </g>
      <g
         transform="matrix(0.11510199,0,0,0.14222235,414.81307,497.41961)"
         id="g4942">
        <rect
           id="rect4944"
           height="63"
           width="85"
           y="286"
           x="114"
           style="fill:#ffffff" />
        <path
           id="path4946"
           d="m 190.4,338.536 -21.949,-21.948 21.134,-21.135 c 0.519,-0.518 0.519,-1.357 0,-1.877 -0.519,-0.52 -1.358,-0.52 -1.877,0 l -31.256,31.256 -31.255,-31.256 c -0.519,-0.52 -1.359,-0.52 -1.878,0 -0.519,0.52 -0.519,1.359 0,1.877 l 21.134,21.135 -21.948,21.948 c -0.519,0.519 -0.519,1.358 0,1.878 0.259,0.26 0.599,0.389 0.938,0.389 0.34,0 0.68,-0.129 0.939,-0.389 l 21.948,-21.948 10.122,10.121 10.122,-10.121 21.948,21.948 c 0.26,0.26 0.6,0.389 0.939,0.389 0.339,0 0.68,-0.129 0.939,-0.389 0.519,-0.518 0.519,-1.359 0,-1.878 z"
           inkscape:connector-curvature="0"
           style="fill:#efefef" />
      </g>
      <g
         transform="matrix(0.11510199,0,0,0.14222235,414.81307,497.41961)"
         id="g4948">
        <rect
           id="rect4950"
           height="39"
           width="51"
           y="88"
           x="404"
           style="fill:#ffffff" />
        <path
           id="path4952"
           d="m 450.18,120.333 -13.389,-13.389 12.892,-12.893 c 0.316,-0.316 0.316,-0.829 0,-1.145 -0.315,-0.317 -0.827,-0.317 -1.145,0 l -19.067,19.067 -19.065,-19.067 c -0.316,-0.317 -0.829,-0.317 -1.146,0 -0.315,0.316 -0.315,0.829 0,1.145 l 12.894,12.893 -13.391,13.389 c -0.315,0.316 -0.315,0.829 0,1.146 0.158,0.159 0.365,0.237 0.573,0.237 0.207,0 0.414,-0.079 0.572,-0.237 l 13.389,-13.389 6.175,6.174 6.175,-6.174 13.39,13.389 c 0.158,0.159 0.365,0.237 0.573,0.237 0.207,0 0.413,-0.079 0.571,-0.237 0.315,-0.317 0.315,-0.83 -10e-4,-1.146 z"
           inkscape:connector-curvature="0"
           style="fill:#efefef" />
      </g>
      <path
         id="path4954"
         d="m 456.59509,519.45085 c 0,-0.46407 -0.30444,-0.84011 -0.67979,-0.84011 l -12.45265,0 c -0.37547,0 -0.67979,0.37619 -0.67979,0.84011 l 0,26.19537 c 0,0.46421 0.30444,0.8401 0.67979,0.8401 l 12.45265,0 c 0.37547,0 0.67979,-0.37617 0.67979,-0.8401 l 0,-26.19537 z m -1.26612,21.91547 -11.39509,0 0,-21.33335 11.39509,0 0,21.33335 z"
         inkscape:connector-curvature="0"
         style="fill:#202837" />
      <path
         id="path4956"
         d="m 439.56,506.22417 c 0,-0.46393 -0.30445,-0.8401 -0.67991,-0.8401 l -21.20017,0 c -0.37546,0 -0.67991,0.37617 -0.67991,0.8401 l 0,20.3644 c 0,0.46393 0.30445,0.8401 0.67991,0.8401 l 21.20017,0 c 0.37558,0 0.67991,-0.37617 0.67991,-0.8401 l 0,-20.3644 z m -1.38123,0.86657 0,18.77335 -19.68244,0 0,-18.77335 19.68244,0 z"
         inkscape:connector-curvature="0"
         style="fill:#202837" />
      <ellipse
         ry="0.9969787"
         rx="0.80686492"
         id="circle4958"
         cy="544.02246"
         cx="449.62454"
         style="fill:#ffffff" />
      <path
         id="path4960"
         d="m 439.6751,531.25517 c 0,-0.46393 -0.30444,-0.83997 -0.67979,-0.83997 l -12.45265,0 c -0.37547,0 -0.6798,0.37618 -0.6798,0.83997 l 0,26.19565 c 0,0.46407 0.30445,0.83996 0.6798,0.83996 l 12.45265,0 c 0.37546,0 0.67979,-0.37618 0.67979,-0.83996 l 0,-26.19565 z m -0.57551,23.19561 -12.54611,0 0,-23.18224 12.54611,0 0,23.18224 z"
         inkscape:connector-curvature="0"
         style="fill:#202837" />
      <path
         id="path4962"
         d="m 485.6008,531.84155 c 0,-0.39495 -0.25922,-0.71524 -0.57885,-0.71524 l -25.08556,0 c -0.31964,0 -0.57885,0.32029 -0.57885,0.71524 l 0,20.18704 c 0,0.39495 0.25921,0.71524 0.57885,0.71524 l 25.08533,0 c 0.31964,0 0.57884,-0.32029 0.57884,-0.71524 l 2.4e-4,-20.18704 0,0 z m -1.26613,19.19589 -23.82611,0 0,-18.48891 23.82611,0 0,18.48891 z"
         inkscape:connector-curvature="0"
         style="fill:#202837" />
      <path
         id="path4964"
         d="m 434.95592,556.54984 c 0,-0.37376 -0.24517,-0.67684 -0.54777,-0.67684 l -3.27833,0 c -0.30249,0 -0.54778,0.30308 -0.54778,0.67684 l 0,0.0685 c 0,0.37376 0.24517,0.67683 0.54778,0.67683 l 3.27833,0 c 0.30249,0 0.54777,-0.30307 0.54777,-0.67683 l 0,-0.0685 z"
         inkscape:connector-curvature="0"
         style="fill:#ffffff" />
      <path
         id="path4966"
         d="m 469.14121,506.23086 c 0,-0.7818 -0.51301,-1.41568 -1.14572,-1.41568 l -7.26202,0 c -0.63272,0 -1.14572,0.63388 -1.14572,1.41568 l 0,20.2088 c 0,0.78194 0.513,1.41568 1.14572,1.41568 l 7.26202,0 c 0.63271,0 1.14572,-0.63374 1.14572,-1.41568 l 0,-20.2088 z m -1.15102,12.36055 c 0,0.56049 -0.36763,1.01489 -0.82137,1.01489 l -5.72391,0 c -0.4535,0 -0.82136,-0.4544 -0.82136,-1.01489 l 0,-11.48133 c 0,-0.5605 0.36764,-1.0149 0.82136,-1.0149 l 5.72391,0 c 0.4535,0 0.82137,0.4544 0.82137,1.0149 l 0,11.48133 z"
         inkscape:connector-curvature="0"
         style="fill:#202837" />
      <rect
         id="rect4968"
         height="2.8444469"
         width="7.5967312"
         y="552.74414"
         x="468.45056"
         style="fill:#000000;fill-opacity:1" />
      <rect
         id="rect4970"
         height="1.564446"
         width="11.04979"
         y="554.87744"
         x="466.72406"
         style="fill:#202837" />
      <path
         id="path4972"
         d="m 464.19182,520.60186 -2.56769,0 c -0.19591,0 -0.30986,0.20395 -0.30986,0.57771 l 0,0.0623 c 0,0.37362 0.11395,0.64014 0.30986,0.64014 l 2.56769,0 0,-1.28014 z"
         inkscape:connector-curvature="0"
         style="fill:#ffffff" />
      <path
         id="path4974"
         d="m 464.42203,521.88186 2.58266,0 c 0.19579,0 0.40999,-0.26653 0.40999,-0.64014 l 0,-0.0623 c 0,-0.37376 -0.2142,-0.5777 -0.40999,-0.5777 l -2.58266,0 0,1.28014 z"
         inkscape:connector-curvature="0"
         style="fill:#ffffff" />
      <g
         transform="matrix(0.11510199,0,0,0.14222235,414.81307,497.41961)"
         id="g4976">
        <path
           id="path4978"
           d="M 457,179.128 C 457,177.342 455.638,176 454.481,176 l -12.604,0 c -1.156,0 -1.879,1.343 -1.879,3.128 l 0,0.298 c 0,1.785 0.723,3.574 1.879,3.574 l 12.604,0 c 1.155,0 2.519,-1.789 2.519,-3.574 l 0,-0.298 z"
           inkscape:connector-curvature="0"
           style="fill:#ffffff" />
        <path
           id="path4980"
           d="M 438,179.128 C 438,177.342 437.366,176 436.209,176 l -12.603,0 c -1.156,0 -1.606,1.343 -1.606,3.128 l 0,0.298 c 0,1.785 0.45,3.574 1.606,3.574 l 12.603,0 c 1.157,0 1.791,-1.789 1.791,-3.574 l 0,-0.298 z"
           inkscape:connector-curvature="0"
           style="fill:#ffffff" />
        <path
           id="path4982"
           d="M 420,179.128 C 420,177.342 419.235,176 418.08,176 l -12.604,0 c -1.154,0 -1.477,1.343 -1.477,3.128 l 0,0.298 c 0,1.785 0.321,3.574 1.477,3.574 l 12.604,0 c 1.155,0 1.92,-1.789 1.92,-3.574 l 0,-0.298 z"
           inkscape:connector-curvature="0"
           style="fill:#ffffff" />
      </g>
      <g
         transform="matrix(0.11510199,0,0,0.14222235,414.81307,497.41961)"
         id="g4984">
        <path
           id="path4986"
           d="M 457,189.912 C 457,188.126 455.638,187 454.481,187 l -12.604,0 c -1.156,0 -1.879,1.126 -1.879,2.912 l 0,0.298 c 0,1.785 0.723,3.791 1.879,3.791 l 12.604,0 c 1.155,0 2.519,-2.005 2.519,-3.791 l 0,-0.298 z"
           inkscape:connector-curvature="0"
           style="fill:#ffffff" />
        <path
           id="path4988"
           d="M 438,189.912 C 438,188.126 437.366,187 436.209,187 l -12.603,0 c -1.156,0 -1.606,1.126 -1.606,2.912 l 0,0.298 c 0,1.785 0.45,3.791 1.606,3.791 l 12.603,0 c 1.157,0 1.791,-2.005 1.791,-3.791 l 0,-0.298 z"
           inkscape:connector-curvature="0"
           style="fill:#ffffff" />
        <path
           id="path4990"
           d="M 420,189.912 C 420,188.126 419.235,187 418.08,187 l -12.604,0 c -1.154,0 -1.477,1.126 -1.477,2.912 l 0,0.298 c 0,1.785 0.321,3.791 1.477,3.791 l 12.604,0 c 1.155,0 1.92,-2.005 1.92,-3.791 l 0,-0.298 z"
           inkscape:connector-curvature="0"
           style="fill:#ffffff" />
      </g>
      <g
         transform="matrix(0.11510199,0,0,0.14222235,414.81307,497.41961)"
         id="g4992">
        <path
           id="path4994"
           d="M 457,199.912 C 457,198.126 455.638,197 454.481,197 l -12.604,0 c -1.156,0 -1.879,1.126 -1.879,2.912 l 0,0.298 c 0,1.785 0.723,3.791 1.879,3.791 l 12.604,0 c 1.155,0 2.519,-2.005 2.519,-3.791 l 0,-0.298 z"
           inkscape:connector-curvature="0"
           style="fill:#ffffff" />
        <path
           id="path4996"
           d="M 438,199.912 C 438,198.126 437.366,197 436.209,197 l -12.603,0 c -1.156,0 -1.606,1.126 -1.606,2.912 l 0,0.298 c 0,1.785 0.45,3.791 1.606,3.791 l 12.603,0 c 1.157,0 1.791,-2.005 1.791,-3.791 l 0,-0.298 z"
           inkscape:connector-curvature="0"
           style="fill:#ffffff" />
        <path
           id="path4998"
           d="M 420,199.912 C 420,198.126 419.235,197 418.08,197 l -12.604,0 c -1.154,0 -1.477,1.126 -1.477,2.912 l 0,0.298 c 0,1.785 0.321,3.791 1.477,3.791 l 12.604,0 c 1.155,0 1.92,-2.005 1.92,-3.791 l 0,-0.298 z"
           inkscape:connector-curvature="0"
           style="fill:#ffffff" />
      </g>
      <path
         id="path5000"
         d="m 467.52978,505.24185 c 0,0.31417 -0.20614,0.56888 -0.4604,0.56888 l 0,0 c -0.25427,0 -0.46042,-0.25471 -0.46042,-0.56888 l 0,-1.70667 c 0,-0.31417 0.20615,-0.56889 0.46042,-0.56889 l 0,0 c 0.25426,0 0.4604,0.25472 0.4604,0.56889 l 0,1.70667 z"
         inkscape:connector-curvature="0"
         style="fill:#202837" />
      <path
         style="fill:#000000;fill-opacity:1"
         inkscape:connector-curvature="0"
         d="m 418.49633,510.15961 0,12.75123 c 0.96157,-5.85089 2.97643,-11.2286 5.78825,-15.8201 l -4.3223,0 c -0.52119,0.99569 -1.01037,2.01955 -1.46595,3.06887 z"
         id="path5004" />
      <path
         style="fill:#000000;fill-opacity:1"
         inkscape:connector-curvature="0"
         d="m 484.33467,539.11153 0,-6.563 -2.92888,0 c -0.24321,6.74504 -1.86247,13.04749 -4.52018,18.48891 l 4.06322,0 c 1.57022,-3.69479 2.72423,-7.70148 3.38584,-11.92591 z"
         id="path5006" />
      <path
         style="fill:#000000;fill-opacity:1"
         inkscape:connector-curvature="0"
         d="m 418.49633,525.86409 3.09475,0 c 0.81573,-7.18849 3.39689,-13.67667 7.18605,-18.77335 l -4.49255,0 c -2.81182,4.5915 -4.82668,9.96921 -5.78825,15.8201 l 0,2.95325 z"
         id="path5008" />
      <path
         style="fill:#000000;fill-opacity:1"
         inkscape:connector-curvature="0"
         d="m 477.95031,532.54853 c -0.27832,6.87105 -2.15977,13.22071 -5.19156,18.48891 l 4.12675,0 c 2.65793,-5.44142 4.27696,-11.74387 4.52017,-18.48891 l -3.45536,0 z"
         id="path5010" />
      <path
         style="fill:#007eff"
         inkscape:connector-curvature="0"
         d="m 426.55348,551.05949 0,3.39129 2.22572,0 c -0.79673,-1.07136 -1.54087,-2.20331 -2.22572,-3.39129 z"
         id="path5012" />
      <path
         style="fill:#ffffff"
         inkscape:connector-curvature="0"
         d="m 467.16882,506.09518 -2.97205,0 c 1.3795,1.24388 2.65115,2.65899 3.79342,4.22187 l 0,-3.20697 c 0,-0.5605 -0.36763,-1.0149 -0.82137,-1.0149 z"
         id="path5014" />
      <path
         style="fill:#ffffff"
         inkscape:connector-curvature="0"
         d="m 434.06008,554.45078 c -3.33646,-3.35744 -5.94916,-7.76975 -7.5066,-12.82576 l 0,9.43447 c 0.68485,1.18798 1.42899,2.31993 2.22572,3.39129 l 5.28088,0 z"
         id="path5016" />
      <path
         style="fill:#ffffff"
         inkscape:connector-curvature="0"
         d="m 425.26272,525.86409 c 0.98573,-7.53978 4.20571,-14.15412 8.79448,-18.77335 l -5.28019,0 c -3.78915,5.09668 -6.37032,11.58486 -7.18604,18.77335 l 3.67175,0 z"
         id="path5018" />
      <path
         style="fill:#ffffff"
         inkscape:connector-curvature="0"
         d="m 474.31297,532.54853 c -0.32919,7.07969 -2.6112,13.51198 -6.1903,18.48891 l 4.6362,0 c 3.03201,-5.2682 4.91335,-11.61786 5.19156,-18.48891 l -3.63746,0 z"
         id="path5020" />
      <path
         style="fill:#ffffff"
         inkscape:connector-curvature="0"
         d="m 425.26272,525.86409 3.50612,0 c 1.10268,-7.20982 4.589,-13.37815 9.40993,-17.20478 l 0,-1.56857 -4.12157,0 c -4.58877,4.61923 -7.80863,11.23357 -8.79448,18.77335 z"
         id="path5022" />
      <path
         style="fill:#ffffff"
         inkscape:connector-curvature="0"
         d="m 470.85243,532.54853 c -0.40274,7.43639 -3.30941,14.02555 -7.68893,18.48891 l 4.95894,0 c 3.57933,-4.97693 5.86111,-11.40922 6.1903,-18.48891 l -3.46031,0 z"
         id="path5024" />
      <path
         style="fill:#ffffff"
         inkscape:connector-curvature="0"
         d="m 464.19677,506.09518 -2.75174,0 c -0.4535,0 -0.82137,0.4544 -0.82137,1.0149 l 0,1.16722 c 3.03363,2.26474 5.57128,5.44043 7.36653,9.21984 l 0,-7.18009 c -1.14227,-1.56288 -2.41392,-2.97799 -3.79342,-4.22187 z"
         id="path5026" />
      <path
         style="fill:#ffffff"
         inkscape:connector-curvature="0"
         d="m 434.06008,554.45078 5.03951,0 0,-0.88107 c -6.28503,-4.44943 -10.55324,-12.75194 -10.69735,-22.30117 l -1.84876,0 0,10.35648 c 1.55744,5.05601 4.17014,9.46832 7.5066,12.82576 z"
         id="path5028" />
      <path
         style="fill:#000000;fill-opacity:1"
         inkscape:connector-curvature="0"
         d="m 428.76884,525.86409 3.70813,0 c 0.85774,-4.60346 2.89711,-8.64855 5.7018,-11.62313 l 0,-5.58165 c -4.82093,3.82663 -8.30725,9.99496 -9.40993,17.20478 z"
         id="path5030" />
      <path
         style="fill:#000000;fill-opacity:1"
         inkscape:connector-curvature="0"
         d="m 470.85243,532.54853 -3.6401,0 c -0.40804,6.23461 -2.94108,11.72738 -6.70377,15.37026 l 0,3.11865 2.65494,0 c 4.37952,-4.46336 7.28619,-11.05252 7.68893,-18.48891 z"
         id="path5032" />
      <path
         style="fill:#000000;fill-opacity:1"
         inkscape:connector-curvature="0"
         d="m 439.09959,553.56971 0,-5.35808 c -4.19282,-3.87841 -6.94042,-10.01104 -7.06668,-16.94309 l -3.63078,0 c 0.14422,9.54923 4.41243,17.85174 10.69746,22.30117 z"
         id="path5034" />
      <path
         style="fill:#000000;fill-opacity:1"
         inkscape:connector-curvature="0"
         d="m 460.62366,508.2773 0,5.45636 c 1.65448,1.62944 3.0662,3.61885 4.15749,5.87264 l 2.38767,0 c 0.4535,0 0.82137,-0.4544 0.82137,-1.01489 l 0,-1.09427 c -1.79525,-3.77941 -4.3329,-6.9551 -7.36653,-9.21984 z"
         id="path5036" />
      <path
         style="fill:#000000;fill-opacity:1"
         inkscape:connector-curvature="0"
         d="m 467.21233,532.54853 -3.55573,0 c -0.28879,3.51276 -1.42324,6.71674 -3.14815,9.29552 l 0,6.07474 c 3.7628,-3.64288 6.29584,-9.13565 6.70388,-15.37026 z"
         id="path5038" />
      <path
         style="fill:#000000;fill-opacity:1"
         inkscape:connector-curvature="0"
         d="m 432.47697,525.86409 3.66128,0 c 0.44625,-1.8799 1.14181,-3.62796 2.04064,-5.185 l 0,-6.43813 c -2.80481,2.97458 -4.84418,7.01967 -5.70192,11.62313 z"
         id="path5040" />
      <path
         style="fill:#000000;fill-opacity:1"
         inkscape:connector-curvature="0"
         d="m 439.09959,548.21163 0,-5.92285 c -2.11316,-2.95254 -3.42739,-6.79809 -3.52373,-11.02024 l -3.54295,0 c 0.12626,6.93205 2.87386,13.06468 7.06668,16.94309 z"
         id="path5042" />
      <path
         style="fill:#000000;fill-opacity:1"
         inkscape:connector-curvature="0"
         d="m 460.62366,513.73366 0,4.85775 c 0,0.56049 0.36764,1.01489 0.82137,1.01489 l 3.33612,0 c -1.09129,-2.25379 -2.50301,-4.2432 -4.15749,-5.87264 z"
         id="path5044" />
      <path
         style="fill:#ffffff"
         inkscape:connector-curvature="0"
         d="m 438.17877,525.86409 0,-5.185 c -0.89871,1.55704 -1.59427,3.3051 -2.04064,5.185 l 2.04064,0 z"
         id="path5046" />
      <path
         style="fill:#ffffff"
         inkscape:connector-curvature="0"
         d="m 460.50856,532.54853 0,9.29552 c 1.72469,-2.57921 2.85937,-5.78276 3.14816,-9.29552 l -3.14816,0 z"
         id="path5048" />
      <path
         style="fill:#ffffff"
         inkscape:connector-curvature="0"
         d="m 439.09959,531.26854 -3.52373,0 c 0.0963,4.22229 1.41057,8.06784 3.52373,11.02024 l 0,-11.02024 z"
         id="path5050" />
      <path
         style="fill:#ffffff"
         inkscape:connector-curvature="0"
         d="m 443.93388,525.78857 c 1.26658,-2.21526 3.3536,-3.66323 5.71584,-3.66323 2.33945,0 4.40922,1.42052 5.67925,3.60022 l 0,-5.69259 -11.39509,0 0,5.7556 z"
         id="path5052" />
      <path
         style="fill:#ffffff"
         inkscape:connector-curvature="0"
         d="m 449.64972,539.41332 c -2.36212,0 -4.44915,-1.44825 -5.71584,-3.6635 l 0,5.6165 11.39509,0 0,-5.55336 c -1.27003,2.17942 -3.34003,3.60036 -5.67925,3.60036 z"
         id="path5054" />
      <path
         style="fill:#b42874"
         inkscape:connector-curvature="0"
         d="m 449.64972,522.1252 c -2.36212,0 -4.44915,1.44797 -5.71584,3.66322 l 0,9.96126 c 1.26658,2.21525 3.3536,3.66336 5.71584,3.66336 2.33945,0 4.40922,-1.42052 5.67925,-3.59993 l 0,-10.08755 c -1.27003,-2.1797 -3.34003,-3.60036 -5.67925,-3.60036 z m 0,12.91137 c -1.90735,0 -3.45352,-1.9109 -3.45352,-4.26724 0,-2.35676 1.54628,-4.2671 3.45352,-4.2671 1.90713,0 3.45353,1.91034 3.45353,4.2671 0,2.35677 -1.5464,4.26724 -3.45353,4.26724 z"
         id="path5056" />
      <path
         style="fill:#b42874"
         inkscape:connector-curvature="0"
         d="m 449.64972,526.50223 c -1.90735,0 -3.45352,1.91034 -3.45352,4.2671 0,2.35634 1.54628,4.26724 3.45352,4.26724 1.90713,0 3.45353,-1.9109 3.45353,-4.26724 0,-2.35676 -1.5464,-4.2671 -3.45353,-4.2671 z m 0,6.34568 c -0.92933,0 -1.68256,-0.93084 -1.68256,-2.07858 0,-1.14802 0.75323,-2.07915 1.68256,-2.07915 0.92934,0 1.68233,0.93113 1.68233,2.07915 -1.1e-4,1.14802 -0.75299,2.07858 -1.68233,2.07858 z"
         id="path5058" />
      <path
         style="fill:#b42874"
         inkscape:connector-curvature="0"
         d="m 449.64972,528.69018 c -0.92933,0 -1.68256,0.93113 -1.68256,2.07915 0,1.14774 0.75323,2.07858 1.68256,2.07858 0.92934,0 1.68233,-0.93084 1.68233,-2.07858 -1.1e-4,-1.14802 -0.75299,-2.07915 -1.68233,-2.07915 z m 0,2.29789 0,-0.21874 -0.17737,0 0.17737,0 0,-0.21873 0,0.21873 0.17692,0 -0.17692,0 0,0.21874 z"
         id="path5060" />
      <line
         style="fill:none"
         x1="449.64972"
         y1="530.5506"
         x2="449.64972"
         y2="530.76935"
         id="line5062" />
      <line
         style="fill:none"
         x1="449.64972"
         y1="530.76935"
         x2="449.47235"
         y2="530.76935"
         id="line5064" />
      <line
         style="fill:none"
         x1="449.64972"
         y1="530.76935"
         x2="449.64972"
         y2="530.9881"
         id="line5066" />
      <line
         style="fill:none"
         x1="449.82663"
         y1="530.76935"
         x2="449.64972"
         y2="530.76935"
         id="line5068" />
    </g>
  </g>
</svg>
