<?xml version="1.0" encoding="utf-8"?>
<!-- Generator: Adobe Illustrator 16.1.0, SVG Export Plug-In . SVG Version: 6.00 Build 0)  -->
<!DOCTYPE svg PUBLIC "-//W3C//DTD SVG 1.1 Tiny//EN" "http://www.w3.org/Graphics/SVG/1.1/DTD/svg11-tiny.dtd" [
	<!ENTITY ns_extend "http://ns.adobe.com/Extensibility/1.0/">
	<!ENTITY ns_ai "http://ns.adobe.com/AdobeIllustrator/10.0/">
	<!ENTITY ns_graphs "http://ns.adobe.com/Graphs/1.0/">
	<!ENTITY ns_vars "http://ns.adobe.com/Variables/1.0/">
	<!ENTITY ns_imrep "http://ns.adobe.com/ImageReplacement/1.0/">
	<!ENTITY ns_sfw "http://ns.adobe.com/SaveForWeb/1.0/">
	<!ENTITY ns_custom "http://ns.adobe.com/GenericCustomNamespace/1.0/">
	<!ENTITY ns_adobe_xpath "http://ns.adobe.com/XPath/1.0/">
]>
<svg version="1.1" baseProfile="tiny" id="Layer_1" xmlns:x="&ns_extend;" xmlns:i="&ns_ai;" xmlns:graph="&ns_graphs;"
	 xmlns="http://www.w3.org/2000/svg" xmlns:xlink="http://www.w3.org/1999/xlink" x="0px" y="0px" width="640px" height="480px"
	 viewBox="0 0 640 480" xml:space="preserve">
<metadata>
	<sfw  xmlns="&ns_sfw;">
		<slices></slices>
		<sliceSourceBounds  height="389" width="596" bottomLeftOrigin="true" y="52.5" x="18.5"></sliceSourceBounds>
	</sfw>
</metadata>
<g>
	<rect x="458" y="282" fill="#FFFFFF" width="85" height="63"/>
	<path fill="#EFEFEF" d="M534.4,334.536l-21.949-21.948l21.134-21.135c0.519-0.518,0.519-1.357,0-1.877s-1.358-0.52-1.877,0
		l-31.256,31.256l-31.255-31.256c-0.521-0.52-1.359-0.52-1.879,0s-0.52,1.359,0,1.877l21.135,21.135l-21.949,21.948
		c-0.518,0.519-0.518,1.358,0,1.878c0.26,0.26,0.6,0.389,0.939,0.389c0.339,0,0.68-0.129,0.938-0.389l21.947-21.948l10.122,10.121
		l10.122-10.121l21.946,21.948c0.261,0.26,0.601,0.389,0.939,0.389s0.68-0.129,0.939-0.389
		C534.919,335.896,534.919,335.055,534.4,334.536z"/>
</g>
<g>
	<rect x="71" y="104" fill="#FFFFFF" width="85" height="63"/>
	<path fill="#EFEFEF" d="M147.4,156.536l-21.949-21.948l21.134-21.134c0.519-0.518,0.519-1.359,0-1.878s-1.358-0.519-1.877,0
		l-31.256,31.256l-31.255-31.256c-0.519-0.519-1.359-0.519-1.878,0s-0.519,1.36,0,1.878l21.134,21.134l-21.948,21.948
		c-0.519,0.519-0.519,1.359,0,1.878c0.259,0.26,0.599,0.389,0.938,0.389c0.34,0,0.68-0.129,0.939-0.389l21.948-21.948l10.122,10.121
		l10.122-10.121l21.948,21.948c0.26,0.26,0.6,0.389,0.939,0.389s0.68-0.129,0.939-0.389
		C147.919,157.896,147.919,157.055,147.4,156.536z"/>
</g>
<g>
	<rect x="114" y="286" fill="#FFFFFF" width="85" height="63"/>
	<path fill="#EFEFEF" d="M190.4,338.536l-21.949-21.948l21.134-21.135c0.519-0.518,0.519-1.357,0-1.877s-1.358-0.52-1.877,0
		l-31.256,31.256l-31.255-31.256c-0.519-0.52-1.359-0.52-1.878,0s-0.519,1.359,0,1.877l21.134,21.135l-21.948,21.948
		c-0.519,0.519-0.519,1.358,0,1.878c0.259,0.26,0.599,0.389,0.938,0.389c0.34,0,0.68-0.129,0.939-0.389l21.948-21.948l10.122,10.121
		l10.122-10.121l21.948,21.948c0.26,0.26,0.6,0.389,0.939,0.389s0.68-0.129,0.939-0.389
		C190.919,339.896,190.919,339.055,190.4,338.536z"/>
</g>
<g>
	<rect x="404" y="88" fill="#FFFFFF" width="51" height="39"/>
	<path fill="#EFEFEF" d="M450.18,120.333l-13.389-13.389l12.892-12.893c0.316-0.316,0.316-0.829,0-1.145
		c-0.315-0.317-0.827-0.317-1.145,0l-19.067,19.067l-19.065-19.067c-0.316-0.317-0.829-0.317-1.146,0
		c-0.315,0.316-0.315,0.829,0,1.145l12.894,12.893l-13.391,13.389c-0.315,0.316-0.315,0.829,0,1.146
		c0.158,0.159,0.365,0.237,0.573,0.237c0.207,0,0.414-0.079,0.572-0.237l13.389-13.389l6.175,6.174l6.175-6.174l13.39,13.389
		c0.158,0.159,0.365,0.237,0.573,0.237c0.207,0,0.413-0.079,0.571-0.237C450.496,121.162,450.496,120.649,450.18,120.333z"/>
</g>
<path fill="#202837" d="M363,154.907c0-3.263-2.645-5.907-5.906-5.907H248.906c-3.262,0-5.906,2.645-5.906,5.907v184.186
	c0,3.264,2.645,5.907,5.906,5.907h108.188c3.262,0,5.906-2.645,5.906-5.907V154.907z M352,309h-99V159h99V309z"/>
<path fill="#202837" d="M215,61.907c0-3.262-2.645-5.907-5.907-5.907H24.907C21.645,56,19,58.645,19,61.907v143.187
	c0,3.262,2.645,5.907,5.907,5.907h184.186c3.263,0,5.907-2.645,5.907-5.907V61.907z M203,68v132H32V68H203z"/>
<circle fill="#FFFFFF" cx="302.44" cy="327.676" r="7.01"/>
<path fill="#202837" d="M216,237.906c0-3.262-2.645-5.906-5.906-5.906H101.906c-3.262,0-5.906,2.645-5.906,5.906v184.188
	c0,3.263,2.645,5.906,5.906,5.906h108.188c3.262,0,5.906-2.645,5.906-5.906V237.906z M211,401H102V238h109V401z"/>
<path fill="#202837" d="M615,242.029c0-2.777-2.252-5.029-5.029-5.029H392.029c-2.777,0-5.029,2.252-5.029,5.029v141.94
	c0,2.777,2.252,5.029,5.029,5.029h217.94c2.777,0,5.029-2.252,5.029-5.029L615,242.029L615,242.029z M604,377H397V247h207V377z"/>
<path fill="#FFFFFF" d="M175,415.759c0-2.628-2.13-4.759-4.759-4.759h-28.482c-2.628,0-4.759,2.131-4.759,4.759v0.482
	c0,2.628,2.13,4.759,4.759,4.759h28.482c2.628,0,4.759-2.131,4.759-4.759V415.759z"/>
<path fill="#202837" d="M472,61.954c0-5.497-4.457-9.954-9.954-9.954h-63.092c-5.497,0-9.954,4.457-9.954,9.954v142.093
	c0,5.498,4.457,9.954,9.954,9.954h63.092c5.497,0,9.954-4.456,9.954-9.954V61.954z M462,148.864c0,3.941-3.194,7.136-7.136,7.136
	h-49.729c-3.94,0-7.136-3.195-7.136-7.136V68.136c0-3.941,3.194-7.136,7.136-7.136h49.729c3.94,0,7.136,3.195,7.136,7.136V148.864z"
	/>
<rect x="466" y="389" fill="#202837" width="66" height="20"/>
<rect x="451" y="404" fill="#202837" width="96" height="11"/>
<path fill="#FFFFFF" d="M429,163h-22.308c-1.702,0-2.692,1.434-2.692,4.062v0.438c0,2.627,0.99,4.501,2.692,4.501H429V163z"/>
<path fill="#FFFFFF" d="M431,172h22.438c1.701,0,3.562-1.874,3.562-4.501v-0.438c0-2.628-1.861-4.062-3.562-4.062H431V172z"/>
<g>
	<path fill="#FFFFFF" d="M457,179.128c0-1.786-1.362-3.128-2.519-3.128h-12.604c-1.156,0-1.879,1.343-1.879,3.128v0.298
		c0,1.785,0.723,3.574,1.879,3.574h12.604c1.155,0,2.519-1.789,2.519-3.574V179.128z"/>
	<path fill="#FFFFFF" d="M438,179.128c0-1.786-0.634-3.128-1.791-3.128h-12.603c-1.156,0-1.606,1.343-1.606,3.128v0.298
		c0,1.785,0.45,3.574,1.606,3.574h12.603c1.157,0,1.791-1.789,1.791-3.574V179.128z"/>
	<path fill="#FFFFFF" d="M420,179.128c0-1.786-0.765-3.128-1.92-3.128h-12.604c-1.154,0-1.477,1.343-1.477,3.128v0.298
		c0,1.785,0.321,3.574,1.477,3.574h12.604c1.155,0,1.92-1.789,1.92-3.574V179.128z"/>
</g>
<g>
	<path fill="#FFFFFF" d="M457,189.912c0-1.786-1.362-2.912-2.519-2.912h-12.604c-1.156,0-1.879,1.126-1.879,2.912v0.298
		c0,1.785,0.723,3.791,1.879,3.791h12.604c1.155,0,2.519-2.005,2.519-3.791V189.912z"/>
	<path fill="#FFFFFF" d="M438,189.912c0-1.786-0.634-2.912-1.791-2.912h-12.603c-1.156,0-1.606,1.126-1.606,2.912v0.298
		c0,1.785,0.45,3.791,1.606,3.791h12.603c1.157,0,1.791-2.005,1.791-3.791V189.912z"/>
	<path fill="#FFFFFF" d="M420,189.912c0-1.786-0.765-2.912-1.92-2.912h-12.604c-1.154,0-1.477,1.126-1.477,2.912v0.298
		c0,1.785,0.321,3.791,1.477,3.791h12.604c1.155,0,1.92-2.005,1.92-3.791V189.912z"/>
</g>
<g>
	<path fill="#FFFFFF" d="M457,199.912c0-1.786-1.362-2.912-2.519-2.912h-12.604c-1.156,0-1.879,1.126-1.879,2.912v0.298
		c0,1.785,0.723,3.791,1.879,3.791h12.604c1.155,0,2.519-2.005,2.519-3.791V199.912z"/>
	<path fill="#FFFFFF" d="M438,199.912c0-1.786-0.634-2.912-1.791-2.912h-12.603c-1.156,0-1.606,1.126-1.606,2.912v0.298
		c0,1.785,0.45,3.791,1.606,3.791h12.603c1.157,0,1.791-2.005,1.791-3.791V199.912z"/>
	<path fill="#FFFFFF" d="M420,199.912c0-1.786-0.765-2.912-1.92-2.912h-12.604c-1.154,0-1.477,1.126-1.477,2.912v0.298
		c0,1.785,0.321,3.791,1.477,3.791h12.604c1.155,0,1.92-2.005,1.92-3.791V199.912z"/>
</g>
<path fill="#202837" d="M458,55c0,2.209-1.791,4-4,4l0,0c-2.209,0-4-1.791-4-4V43c0-2.209,1.791-4,4-4l0,0c2.209,0,4,1.791,4,4V55z"
	/>
<g>
	<path fill="#007EFF" d="M32,89.578v89.657C40.354,138.096,57.859,100.284,82.288,68H44.736C40.208,75.001,35.958,82.2,32,89.578z"
		/>
	<path fill="#007EFF" d="M604,293.146V247h-25.446c-2.113,47.426-16.181,91.74-39.271,130h35.301
		C588.226,351.021,598.252,322.849,604,293.146z"/>
	<path fill="#007EFF" d="M32,200h26.887c7.087-50.544,29.512-96.164,62.432-132H82.288C57.859,100.284,40.354,138.096,32,179.235
		V200z"/>
	<path fill="#007EFF" d="M548.533,247c-2.418,48.312-18.764,92.958-45.104,130h35.853c23.092-38.26,37.158-82.574,39.271-130
		H548.533z"/>
	<path fill="#007EFF" d="M102,377.155V401h19.337C114.415,393.467,107.95,385.508,102,377.155z"/>
	<path fill="#FFFFFF" d="M454.864,61h-25.821c11.985,8.746,23.033,18.696,32.957,29.685V68.136C462,64.195,458.806,61,454.864,61z"
		/>
	<path fill="#FFFFFF" d="M167.217,401c-28.987-23.607-51.686-54.631-65.217-90.181v66.336c5.95,8.353,12.415,16.312,19.337,23.845
		H167.217z"/>
	<path fill="#FFFFFF" d="M90.786,200c8.564-53.014,36.539-99.521,76.406-132h-45.874c-32.92,35.836-55.345,81.456-62.432,132H90.786
		z"/>
	<path fill="#FFFFFF" d="M516.932,247c-2.86,49.779-22.686,95.006-53.781,130h40.279c26.342-37.042,42.687-81.688,45.104-130
		H516.932z"/>
	<path fill="#FFFFFF" d="M90.786,200h30.461c9.58-50.694,39.869-94.065,81.753-120.971V68h-35.808
		C127.325,100.479,99.351,146.986,90.786,200z"/>
	<path fill="#FFFFFF" d="M486.867,247c-3.499,52.287-28.752,98.617-66.801,130h43.083c31.097-34.994,50.921-80.221,53.781-130
		H486.867z"/>
	<path fill="#FFFFFF" d="M429.043,61h-23.907c-3.94,0-7.136,3.195-7.136,7.136v8.207c26.356,15.924,48.403,38.253,64,64.827V90.685
		C452.076,79.696,441.028,69.746,429.043,61z"/>
	<path fill="#FFFFFF" d="M167.217,401H211v-6.195C156.396,363.52,119.314,305.143,118.062,238H102v72.819
		C115.531,346.369,138.23,377.393,167.217,401z"/>
	<path fill="#6D4887" d="M121.247,200h32.216c7.452-32.368,25.17-60.81,49.537-81.725V79.029
		C161.116,105.935,130.827,149.306,121.247,200z"/>
	<path fill="#6D4887" d="M486.867,247h-31.625c-3.545,43.837-25.552,82.458-58.242,108.072V377h23.066
		C458.115,345.617,483.368,299.287,486.867,247z"/>
	<path fill="#6D4887" d="M211,394.805v-37.674c-36.427-27.27-60.298-70.39-61.395-119.131h-31.544
		C119.314,305.143,156.396,363.52,211,394.805z"/>
	<path fill="#6D4887" d="M398,76.343v38.365c14.374,11.457,26.639,25.445,36.12,41.292h20.744c3.94,0,7.136-3.195,7.136-7.136
		v-7.694C446.403,114.596,424.356,92.267,398,76.343z"/>
	<path fill="#6D4887" d="M455.242,247H424.35c-2.509,24.699-12.365,47.227-27.351,65.359v42.713
		C429.69,329.458,451.697,290.837,455.242,247z"/>
	<path fill="#6D4887" d="M153.463,200h31.809c3.877-13.218,9.92-25.509,17.729-36.457v-45.268
		C178.633,139.19,160.915,167.632,153.463,200z"/>
	<path fill="#6D4887" d="M211,357.131v-41.645c-18.359-20.76-29.777-47.799-30.614-77.486h-30.781
		C150.702,286.741,174.573,329.861,211,357.131z"/>
	<path fill="#6D4887" d="M398,114.708v34.156c0,3.941,3.194,7.136,7.136,7.136h28.984C424.639,140.153,412.374,126.165,398,114.708z
		"/>
	<path fill="#FFFFFF" d="M203,200v-36.457c-7.808,10.948-13.851,23.239-17.729,36.457H203z"/>
	<path fill="#FFFFFF" d="M397,247v65.359c14.984-18.135,24.842-40.66,27.351-65.359H397z"/>
	<path fill="#FFFFFF" d="M211,238h-30.614c0.837,29.688,12.255,56.727,30.614,77.486V238z"/>
	<path fill="#FFFFFF" d="M253,199.469c11.004-15.576,29.136-25.757,49.659-25.757c20.325,0,38.307,9.988,49.341,25.314V159h-99
		V199.469z"/>
	<path fill="#FFFFFF" d="M302.659,295.268c-20.522,0-38.654-10.183-49.659-25.759V309h99v-39.047
		C340.966,285.277,322.982,295.268,302.659,295.268z"/>
	<path fill="#B42874" d="M302.659,173.711c-20.522,0-38.654,10.181-49.659,25.757v70.04c11.004,15.576,29.136,25.758,49.659,25.758
		c20.325,0,38.307-9.988,49.341-25.312v-70.928C340.966,183.7,322.982,173.711,302.659,173.711z M302.659,264.494
		c-16.571,0-30.004-13.436-30.004-30.004c0-16.571,13.434-30.003,30.004-30.003c16.569,0,30.004,13.432,30.004,30.003
		C332.663,251.061,319.228,264.494,302.659,264.494z"/>
	<path fill="#B42874" d="M302.659,204.487c-16.571,0-30.004,13.432-30.004,30.003c0,16.568,13.434,30.004,30.004,30.004
		c16.569,0,30.004-13.436,30.004-30.004C332.663,217.919,319.228,204.487,302.659,204.487z M302.659,249.105
		c-8.074,0-14.618-6.545-14.618-14.615c0-8.072,6.544-14.619,14.618-14.619c8.074,0,14.616,6.547,14.616,14.619
		C317.274,242.562,310.733,249.105,302.659,249.105z"/>
	<path fill="#B42874" d="M302.659,219.871c-8.074,0-14.618,6.547-14.618,14.619c0,8.07,6.544,14.615,14.618,14.615
		c8.074,0,14.616-6.545,14.616-14.615C317.274,226.418,310.733,219.871,302.659,219.871z M302.659,236.028v-1.538h-1.541h1.541
		v-1.538v1.538h1.537h-1.537V236.028z"/>
	<line fill="none" x1="302.659" y1="232.952" x2="302.659" y2="234.49"/>
	<line fill="none" x1="302.659" y1="234.49" x2="301.118" y2="234.49"/>
	<line fill="none" x1="302.659" y1="234.49" x2="302.659" y2="236.028"/>
	<line fill="none" x1="304.196" y1="234.49" x2="302.659" y2="234.49"/>
</g>
<g>
	<rect x="269" y="211" fill="#FFFFFF" width="65" height="47"/>
	<path fill="#6D4887" d="M327.247,250.477l-16.67-16.668l16.051-16.051c0.394-0.394,0.394-1.032,0-1.426s-1.03-0.394-1.426,0
		l-23.738,23.739l-23.739-23.739c-0.394-0.394-1.032-0.394-1.426,0s-0.394,1.033,0,1.426l16.051,16.051l-16.67,16.668
		c-0.394,0.396-0.394,1.033,0,1.428c0.197,0.197,0.455,0.295,0.713,0.295c0.258,0,0.517-0.098,0.713-0.295l16.67-16.67l7.688,7.688
		l7.687-7.688l16.669,16.67c0.197,0.197,0.455,0.295,0.714,0.295c0.258,0,0.516-0.098,0.713-0.295
		C327.643,251.51,327.643,250.871,327.247,250.477z"/>
</g>
</svg>
